<svg fill="#ffffff" xmlns="http://www.w3.org/2000/svg" xmlns:xlink="http://www.w3.org/1999/xlink" width="1515" height="340" viewBox="0 0 1515 340">
<path id="Switchly" class="cls-2" d="M389.5,63.428h1.43l16.082-34C385.329,9.156,359.541,0,330,0c-21.444,0-39.738,5.812-55.224,19.411s-22.23,27.257-22.23,48.964q0,40.8,36.454,61.553,8.929,5.016,24.839,11.989t25.375,11.452a56.463,56.463,0,0,1,17.155,12.7c5.121,5.491,7.684,6.809,7.684,13.967q0,14.318-11.079,22.546a41.422,41.422,0,0,1-25.375,8.23q-34.671,0-61.115-25.766h-1.429l-16.083,34q11.073,12.171,32.523,22.188t48.963,10.02q31.8,0,54.681-20.4t22.874-52.964c0-27.2-12.152-42.714-36.455-56.554a212.606,212.606,0,0,0-24.839-12.167q-15.906-6.793-25.375-11.094a52.584,52.584,0,0,1-17.155-12.7q-7.689-8.4-7.684-18.788c0-9.78,2.753-13.413,10.258-18.9s16.5-8.231,26.984-8.231q28.948,0,55.753,23.977h0ZM503.258,250.887l37.884-108.075h1.429l39.314,108.075h27.876L670.876,79.111H630.848l-35.74,102.35h-1.429L556.51,79.111H527.918L492.536,180.388h-1.43L455.724,79.111H413.552l61.114,171.776h28.592Zm231.052,0V79.111h-41.1V250.887h41.1Zm0.715-209.352V0.38H692.5V41.535h42.53Zm129.66,173.934q-15.732,0-22.159-7.158-4.648-5.367-4.646-17.177V114.9H889.7V79.111H837.88V21.852h-41.1V79.111H757.466V114.9H796.78v70.868q0,35.789,15.01,50.817,14.651,14.67,41.1,14.672A94.672,94.672,0,0,0,889.7,244.1v-31.85h-1.429q-9.649,3.221-23.588,3.221h0ZM1042.48,194q-21.795,18.972-44.313,18.967-23.589,0-36.991-14.852c-8.935-9.9-13.4-17.6-13.4-33.113s4.646-23.21,13.938-33.113,21.444-14.851,36.455-14.851q24.664,0,41.813,16.1h1.43L1057.49,102q-25.38-23.258-60.753-23.261-40.03,0-65.582,25.767c-17.038,17.177-25.554,34.605-25.554,62.279,0,26.247,8.1,42.719,24.3,59.416s37.884,25.05,65.046,25.05a100.911,100.911,0,0,0,37.35-6.978q17.685-6.978,28.77-19.5L1043.91,194h-1.43ZM1127.54,0.38h-41.1V250.887h41.1V129.213q3.57-5.368,13.58-10.736a46.125,46.125,0,0,1,22.16-5.368q13.95,0,22.16,9.3t8.22,30.061v98.413h41.1V143.169c0-21.947-8.09-39-19.76-51.169s-23.85-14-41-14c-18.11,0-33.12,2.308-45.03,15.426h-1.43V0.38Zm188.74,250.507V0.38h-41.1V250.887h41.1Zm65.44-171.776h-43.61l66.12,171.178-36.09,88.751h41.46L1515.02,79.111h-41.45l-47.89,120.718h-1.43Z"/>
<path class="cls-3" d="M148,118h38"/>
<path class="cls-3" d="M70.769,41L28.308,83.5,0,111.833l28.307,28.333L56.615,168.5l28.307-28.333L56.615,111.833l42.461-42.5ZM113.23,211l42.461-42.5L184,140.166l-28.308-28.333L127.384,83.5,99.076,111.833l28.308,28.333-42.461,42.5Z"/>
</svg>